<svg xmlns="http://www.w3.org/2000/svg" xmlns:xlink="http://www.w3.org/1999/xlink" version="1.0" x="0px" y="0px" viewBox="0 0 100 125" enable-background="new 0 0 100 100" xml:space="preserve"><path d="M90.737793,37.1859131c-1.701416-2.5365601-3.9393921-4.8269653-6.6509399-6.8330078  c-0.0083618-0.0064087-0.0166016-0.0128174-0.0249634-0.0192261c-0.0196533-0.0145264-0.0387573-0.0293579-0.0584717-0.0438232  c-0.4829102-0.3696289-0.9743042-0.7141113-1.46698-1.0323486l-0.0082397,0.0126953  c-3.2290039-2.125-7.0339966-3.8865967-11.3416138-5.2220459c-6.4755249-2.0074463-11.7889404-2.3812866-12.2647705-2.411499  c-1.168335-0.1248169-15.2808838-1.5471802-28.5961914,0.2235718c-0.5213013,0.055542-0.9116211,0.1165161-1.1610718,0.1610718  c-3.5769043,0.5290527-7.0656738,1.298645-10.1981201,2.4008179l-0.0042725-0.0114136  c-0.1381836,0.0513306-0.258606,0.1091919-0.3932495,0.1618652c-4.0109863,1.4627686-7.4130859,3.4779663-9.6056519,6.2516479  c-3.1663208,4.0062256-4.4454346,8.7613525-3.8012695,14.133606c1.3600464,11.3417358,10.7579956,22.3306274,18.392334,28.2952271  c7.8005371,6.0941162,24.6105347,15.7807007,40.0211182,15.7801514c3.0141602,0,5.9759521-0.3706055,8.8045044-1.2111816  c9.2733154-2.755188,16.0007935-10.0657959,19.9951782-21.7290649  C96.3571167,54.4674072,95.8063354,44.7414551,90.737793,37.1859131z M45.0352783,23.2173462  c7.6672363,0,13.5272217,0.6031494,13.6760864,0.6188354l0.0523682,0.0042725  c0.1651611,0.0101318,12.9969482,0.8602295,22.8380737,7.4572144c0.1868896,0.1247559,0.3658447,0.2521973,0.5444946,0.3799438  c0.1570435,0.1100464,0.3143921,0.2195435,0.4696655,0.3326416c5.8275757,4.427002,6.9034424,10.5571289,3.1887207,18.24646  c-2.8754883,5.9522095-7.4611816,9.9638672-13.6307983,11.9227295c-3.7300415,1.1845703-7.8284912,1.5630493-12.0148926,1.3895264  c3.1994019-1.206665,6.1137695-3.288208,7.8834229-6.2762451c1.9832153-3.3491211,3.9382935-10.4817505-5.2556763-20.6160889  c-7.0930786-7.8183594-14.2250977-11.6345825-20.1105957-13.4393311  C43.4777832,23.223999,44.2661133,23.2173462,45.0352783,23.2173462z M25.4555054,45.1174927  c4.0369873-3.9954834,15.2514038-9.4631958,29.6445312-8.1425171c0.0668945,0.0048218,6.6940308,0.5157471,8.2429199,4.0844727  l0.1334839-0.0579224c4.1800537,5.6746826,5.1438599,10.9787598,2.6643066,15.1652832  c-3.1652222,5.3458252-10.6382446,7.3355103-15.748291,6.1065063l-0.0021973,0.0089111  c-9.1552734-1.9389648-17.6849365-5.6115112-22.5895996-8.3283691c-1.5094604-0.8363647-3.0369873-1.8337402-4.519104-2.9370728  l0.0391846-0.038269C23.2479248,50.897583,21.5759888,48.9559937,25.4555054,45.1174927z M15.2224121,28.9899292  c1.0180054-0.9130249,2.4813843-1.7305298,4.3341064-2.4358521c3.2670898-1.1604004,6.9867554-1.9505005,10.8206787-2.4615479  c3.5280151-0.3684692,15.5930176-0.5785522,27.9841309,11.2139282c-1.6538086-0.4214478-2.9625244-0.5255737-3.083252-0.5336914  c-14.1530151-1.2996826-26.1875,3.6394043-31.3768311,8.7737427c-1.8880005,1.8677979-2.9472656,3.6865234-3.1660767,5.4177856  c-4.3897095-3.828125-7.9058228-8.5204468-8.3920288-12.8174438C12.031311,33.3911133,13.0002441,30.9833374,15.2224121,28.9899292z   M90.2851562,65.3764648c-3.75,10.9484863-9.9860229,17.7875977-18.5342407,20.3275146  c-16.4285889,4.8840332-37.821106-7.1488037-46.8359985-14.1923828C17.0377808,65.357605,8.5532227,54.678894,7.3560791,44.6950684  c-0.548584-4.5730591,0.480896-8.6227417,3.0262451-12.0598145c-0.3046875,1.1849365-0.3842163,2.4394531-0.2349243,3.7597656  c0.8545532,7.5539551,9.1951294,15.399231,16.5829468,19.491272c5.0200806,2.7810059,13.7366943,6.5222778,23.1513062,8.5198975  l-0.0039062,0.0164795c0.1965942,0.0471191,0.4108276,0.0673828,0.6132812,0.1061401  c3.84198,0.7816772,7.7855225,1.2745361,11.6364136,1.2744141c3.7219849,0,7.3554688-0.4509888,10.7148438-1.5175781  c6.7717285-2.1503906,11.8024902-6.5467529,14.9520264-13.0675659c2.0285645-4.1991577,2.62854-7.7515259,2.3155518-10.7492065  C93.6039429,47.1210327,93.6737061,55.4821167,90.2851562,65.3764648z"/><text x="0" y="115" fill="#000000" font-size="5px" font-weight="bold" font-family="'Helvetica Neue', Helvetica, Arial-Unicode, Arial, Sans-serif">Created by Alexander Skowalsky</text><text x="0" y="120" fill="#000000" font-size="5px" font-weight="bold" font-family="'Helvetica Neue', Helvetica, Arial-Unicode, Arial, Sans-serif">from the Noun Project</text></svg>